<svg width="24" height="24" viewBox="0 0 24 24" stroke-width="2" fill="none" xmlns="http://www.w3.org/2000/svg">
<path d="M3 10.9563C3 9.72197 3.56989 8.55675 4.54424 7.79893L9.54424 3.91004C10.9887 2.78658 13.0113 2.78658 14.4558 3.91004L19.4558 7.79893C20.4301 8.55675 21 9.72197 21 10.9563V20C21 20.5304 20.7893 21.0391 20.4142 21.4142C20.0391 21.7893 19.5304 22 19 22H5C4.46957 22 3.96086 21.7893 3.58579 21.4142C3.21071 21.0391 3 20.5304 3 20V10.9563Z" stroke-linecap="round" stroke-linejoin="round"/>
<path d="M9 22V15C9 13.3431 10.3431 12 12 12V12C13.6569 12 15 13.3431 15 15V22" stroke-linecap="round" stroke-linejoin="round"/>
</svg>
