<svg width="22" height="24" viewBox="0 0 22 24" stroke="none" stroke-width="0" xmlns="http://www.w3.org/2000/svg">
<path d="M9.96904 0.299135C10.6013 -0.0997118 11.3987 -0.0997117 12.031 0.299135L21.0638 5.99748C22.3121 6.78491 22.3121 8.64485 21.0638 9.43227L12.031 15.1306C11.3987 15.5295 10.6013 15.5295 9.96904 15.1306L0.936153 9.43227C-0.312051 8.64485 -0.312051 6.78491 0.936153 5.99748L9.96904 0.299135Z" stroke="none" fill="#53ACFF"/>
<path d="M4.60689 14.7727V19.1914C4.60689 19.8916 4.96128 20.5417 5.54304 20.9087L9.96904 23.7009C10.6013 24.0997 11.3987 24.0997 12.031 23.7009L16.457 20.9087C17.0387 20.5417 17.3931 19.8916 17.3931 19.1914V14.7727L12.031 18.1554C11.3987 18.5543 10.6013 18.5543 9.96904 18.1554L4.60689 14.7727Z" stroke="none" fill="#53ACFF"/>
</svg>
