<svg width="24" height="24" viewBox="0 0 24 24" xmlns="http://www.w3.org/2000/svg" stroke-width="2">
<path d="M17 21V19C17 16.7909 15.2091 15 13 15H5C2.79086 15 1 16.7909 1 19V21M23 21V19.13C23 16.9209 21.2091 15.13 19 15.13H18.5M16 3.13C16.8604 3.3503 17.623 3.8507 18.1676 4.55231C18.7122 5.25392 19.0078 6.11683 19.0078 7.005C19.0078 7.89317 18.7122 8.75608 18.1676 9.45769C17.623 10.1593 16.8604 10.6597 16 10.88M13 7C13 9.20914 11.2091 11 9 11C6.79086 11 5 9.20914 5 7C5 4.79086 6.79086 3 9 3C11.2091 3 13 4.79086 13 7Z" stroke-linecap="round" stroke-linejoin="round"/>
</svg>
