<svg width="25" height="24" viewBox="0 0 25 24"  xmlns="http://www.w3.org/2000/svg">
<path d="M20.915 6.82L15.155 2.79C13.585 1.69 11.175 1.75 9.66499 2.92L4.65499 6.83C3.65499 7.61 2.86499 9.21 2.86499 10.47V17.37C2.86499 19.92 4.93499 22 7.48499 22H18.265C20.815 22 22.885 19.93 22.885 17.38V10.6C22.885 9.25 22.015 7.59 20.915 6.82ZM13.625 18C13.625 18.41 13.285 18.75 12.875 18.75C12.465 18.75 12.125 18.41 12.125 18V15C12.125 14.59 12.465 14.25 12.875 14.25C13.285 14.25 13.625 14.59 13.625 15V18Z"/>
</svg>
