<svg width="25" height="24" viewBox="0 0 25 24"  xmlns="http://www.w3.org/2000/svg">
<path d="M12.125 2C9.505 2 7.375 4.13 7.375 6.75C7.375 9.32 9.385 11.4 12.005 11.49C12.085 11.48 12.165 11.48 12.225 11.49C12.245 11.49 12.255 11.49 12.275 11.49C12.285 11.49 12.285 11.49 12.295 11.49C14.855 11.4 16.865 9.32 16.875 6.75C16.875 4.13 14.745 2 12.125 2Z"/>
<path d="M17.205 14.15C14.415 12.29 9.86496 12.29 7.05496 14.15C5.78496 15 5.08496 16.15 5.08496 17.38C5.08496 18.61 5.78496 19.75 7.04496 20.59C8.44496 21.53 10.285 22 12.125 22C13.965 22 15.805 21.53 17.205 20.59C18.465 19.74 19.165 18.6 19.165 17.36C19.155 16.13 18.465 14.99 17.205 14.15Z"/>
</svg>
