<svg width="25" height="24" viewBox="0 0 25 24" xmlns="http://www.w3.org/2000/svg">
<path d="M17.125 3.56V2C17.125 1.59 16.785 1.25 16.375 1.25C15.965 1.25 15.625 1.59 15.625 2V3.5H9.12499V2C9.12499 1.59 8.78499 1.25 8.37499 1.25C7.96499 1.25 7.62499 1.59 7.62499 2V3.56C4.92499 3.81 3.61499 5.42 3.41499 7.81C3.39499 8.1 3.63499 8.34 3.91499 8.34H20.835C21.125 8.34 21.365 8.09 21.335 7.81C21.135 5.42 19.825 3.81 17.125 3.56Z" />
<path d="M20.375 9.84003H4.375C3.825 9.84003 3.375 10.29 3.375 10.84V17C3.375 20 4.875 22 8.375 22H16.375C19.875 22 21.375 20 21.375 17V10.84C21.375 10.29 20.925 9.84003 20.375 9.84003ZM9.585 18.21C9.535 18.25 9.485 18.3 9.435 18.33C9.375 18.37 9.315 18.4 9.255 18.42C9.195 18.45 9.135 18.47 9.075 18.48C9.005 18.49 8.945 18.5 8.875 18.5C8.745 18.5 8.615 18.47 8.495 18.42C8.365 18.37 8.265 18.3 8.165 18.21C7.985 18.02 7.875 17.76 7.875 17.5C7.875 17.24 7.985 16.98 8.165 16.79C8.265 16.7 8.365 16.63 8.495 16.58C8.675 16.5 8.875 16.48 9.075 16.52C9.135 16.53 9.195 16.55 9.255 16.58C9.315 16.6 9.375 16.63 9.435 16.67C9.485 16.71 9.535 16.75 9.585 16.79C9.765 16.98 9.875 17.24 9.875 17.5C9.875 17.76 9.765 18.02 9.585 18.21ZM9.585 14.71C9.395 14.89 9.135 15 8.875 15C8.615 15 8.355 14.89 8.165 14.71C7.985 14.52 7.875 14.26 7.875 14C7.875 13.74 7.985 13.48 8.165 13.29C8.445 13.01 8.885 12.92 9.255 13.08C9.385 13.13 9.495 13.2 9.585 13.29C9.765 13.48 9.875 13.74 9.875 14C9.875 14.26 9.765 14.52 9.585 14.71ZM13.085 18.21C12.895 18.39 12.635 18.5 12.375 18.5C12.115 18.5 11.855 18.39 11.665 18.21C11.485 18.02 11.375 17.76 11.375 17.5C11.375 17.24 11.485 16.98 11.665 16.79C12.035 16.42 12.715 16.42 13.085 16.79C13.265 16.98 13.375 17.24 13.375 17.5C13.375 17.76 13.265 18.02 13.085 18.21ZM13.085 14.71C13.035 14.75 12.985 14.79 12.935 14.83C12.875 14.87 12.815 14.9 12.755 14.92C12.695 14.95 12.635 14.97 12.575 14.98C12.505 14.99 12.445 15 12.375 15C12.115 15 11.855 14.89 11.665 14.71C11.485 14.52 11.375 14.26 11.375 14C11.375 13.74 11.485 13.48 11.665 13.29C11.755 13.2 11.865 13.13 11.995 13.08C12.365 12.92 12.805 13.01 13.085 13.29C13.265 13.48 13.375 13.74 13.375 14C13.375 14.26 13.265 14.52 13.085 14.71ZM16.585 18.21C16.395 18.39 16.135 18.5 15.875 18.5C15.615 18.5 15.355 18.39 15.165 18.21C14.985 18.02 14.875 17.76 14.875 17.5C14.875 17.24 14.985 16.98 15.165 16.79C15.535 16.42 16.215 16.42 16.585 16.79C16.765 16.98 16.875 17.24 16.875 17.5C16.875 17.76 16.765 18.02 16.585 18.21ZM16.585 14.71C16.535 14.75 16.485 14.79 16.435 14.83C16.375 14.87 16.315 14.9 16.255 14.92C16.195 14.95 16.135 14.97 16.075 14.98C16.005 14.99 15.935 15 15.875 15C15.615 15 15.355 14.89 15.165 14.71C14.985 14.52 14.875 14.26 14.875 14C14.875 13.74 14.985 13.48 15.165 13.29C15.265 13.2 15.365 13.13 15.495 13.08C15.675 13 15.875 12.98 16.075 13.02C16.135 13.03 16.195 13.05 16.255 13.08C16.315 13.1 16.375 13.13 16.435 13.17C16.485 13.21 16.535 13.25 16.585 13.29C16.765 13.48 16.875 13.74 16.875 14C16.875 14.26 16.765 14.52 16.585 14.71Z" />
</svg>
