<svg width="25" height="24" viewBox="0 0 25 24" xmlns="http://www.w3.org/2000/svg">
<path d="M16.815 2H8.435C4.795 2 2.625 4.17 2.625 7.81V16.18C2.625 19.83 4.795 22 8.435 22H16.805C20.445 22 22.615 19.83 22.615 16.19V7.81C22.625 4.17 20.455 2 16.815 2ZM17.405 9.7L11.735 15.37C11.595 15.51 11.405 15.59 11.205 15.59C11.005 15.59 10.815 15.51 10.675 15.37L7.845 12.54C7.555 12.25 7.555 11.77 7.845 11.48C8.135 11.19 8.615 11.19 8.905 11.48L11.205 13.78L16.345 8.64C16.635 8.35 17.115 8.35 17.405 8.64C17.695 8.93 17.695 9.4 17.405 9.7Z"/>
</svg>
